<mxfile host="app.diagrams.net" modified="2021-10-20T06:48:42.767Z" agent="5.0 (Macintosh; Intel Mac OS X 10_15_7) AppleWebKit/537.36 (KHTML, like Gecko) Chrome/94.0.4606.81 Safari/537.36" etag="Yup2_yJDziytJhQHCe5f" version="15.5.6" type="github">
  <diagram id="fNWLzeU4bDz3LIibZcyU" name="第 1 页">
    <mxGraphModel dx="902" dy="621" grid="1" gridSize="10" guides="1" tooltips="1" connect="1" arrows="1" fold="1" page="1" pageScale="1" pageWidth="827" pageHeight="1169" math="0" shadow="1">
      <root>
        <mxCell id="0" />
        <mxCell id="1" parent="0" />
        <mxCell id="EVKNV7x50IiOcVgcms_J-1" value="" style="rounded=0;whiteSpace=wrap;html=1;sketch=1;fillColor=#F694C1;strokeColor=#AF45ED;fontColor=#095C86;" vertex="1" parent="1">
          <mxGeometry x="210" y="120" width="180" height="90" as="geometry" />
        </mxCell>
      </root>
    </mxGraphModel>
  </diagram>
</mxfile>
